<svg xmlns="http://www.w3.org/2000/svg" xmlns:xlink="http://www.w3.org/1999/xlink" width="500" zoomAndPan="magnify" viewBox="0 0 375 374.999991" height="500" preserveAspectRatio="xMidYMid meet" version="1.0"><defs><clipPath id="c7a1ed0839"><path d="M 95 99 L 280 99 L 280 276 L 95 276 Z M 95 99 " clip-rule="nonzero"/></clipPath><clipPath id="8160361a4f"><path d="M 108.632812 77.433594 L 292.90625 102.699219 L 266.214844 297.378906 L 81.941406 272.113281 Z M 108.632812 77.433594 " clip-rule="nonzero"/></clipPath><clipPath id="be76b789ca"><path d="M 108.632812 77.433594 L 292.90625 102.699219 L 266.214844 297.378906 L 81.941406 272.113281 Z M 108.632812 77.433594 " clip-rule="nonzero"/></clipPath></defs><rect x="-37.5" width="450" fill="#ffffff" y="-37.499999" height="449.999989" fill-opacity="1"/><rect x="-37.5" width="450" fill="#011d28" y="-37.499999" height="449.999989" fill-opacity="1"/><g clip-path="url(#c7a1ed0839)"><g clip-path="url(#8160361a4f)"><g clip-path="url(#be76b789ca)"><path fill="#00f2c2" d="M 277.121094 149.738281 C 270.25 136.027344 254.628906 135.15625 241.84375 138.976562 C 215.894531 146.714844 189.03125 168.359375 170.964844 188.109375 C 188.820312 179.273438 208.828125 168.953125 227.5 162.515625 C 233.519531 160.4375 239.828125 158.578125 245.972656 157.683594 C 248.886719 157.273438 251.703125 157.132812 253.898438 157.414062 C 254.988281 157.554688 255.875 157.792969 256.464844 158.050781 C 256.734375 158.191406 256.953125 158.316406 257.074219 158.429688 C 257.183594 158.546875 257.238281 158.628906 257.25 158.683594 C 258.617188 169.613281 243.386719 188.480469 235.964844 196.816406 C 224.984375 209.097656 212.75 220.324219 199.683594 230.390625 C 196.53125 232.9375 193.050781 235.199219 189.75 237.582031 C 187.863281 238.789062 184.367188 241.019531 182.480469 242.25 C 165.730469 252.355469 147.585938 260.523438 128.59375 266.089844 C 119.539062 268.753906 110.203125 270.945312 100.777344 271.820312 L 98.128906 272.070312 C 111.921875 276.390625 126.644531 276.15625 140.925781 274.71875 C 146.074219 274.125 151.933594 273.089844 157.019531 272.03125 C 165.867188 270.085938 174.71875 267.292969 183.179688 264.027344 C 186.058594 262.835938 189.171875 261.449219 192.042969 260.214844 C 194.296875 259.09375 198.464844 257.023438 200.699219 255.886719 C 204.703125 253.570312 208.785156 251.386719 212.605469 248.757812 C 212.605469 248.757812 217.25 245.675781 217.25 245.675781 C 236.816406 231.855469 254.765625 215.21875 267.960938 195.070312 C 275.878906 182.546875 284.425781 164.757812 277.121094 149.738281 Z M 97.839844 225.253906 C 90.53125 210.234375 99.082031 192.445312 107 179.925781 C 120.195312 159.773438 138.148438 143.136719 157.710938 129.316406 L 162.355469 126.234375 C 166.175781 123.605469 170.257812 121.425781 174.261719 119.109375 C 176.496094 117.96875 180.664062 115.898438 182.917969 114.78125 C 185.789062 113.542969 188.902344 112.160156 191.78125 110.96875 C 200.242188 107.703125 209.09375 104.910156 217.941406 102.964844 C 223.027344 101.902344 228.886719 100.867188 234.035156 100.269531 C 248.316406 98.835938 263.039062 98.601562 276.832031 102.925781 C 276.832031 102.925781 274.183594 103.167969 274.183594 103.167969 C 264.757812 104.050781 255.421875 106.238281 246.367188 108.90625 C 227.375 114.46875 209.230469 122.636719 192.480469 132.742188 C 190.589844 133.972656 187.09375 136.203125 185.214844 137.410156 C 181.910156 139.792969 178.429688 142.054688 175.277344 144.605469 C 162.210938 154.667969 149.976562 165.898438 138.996094 178.175781 C 131.574219 186.511719 116.34375 205.378906 117.710938 216.308594 C 117.722656 216.363281 117.777344 216.445312 117.886719 216.566406 C 118.007812 216.675781 118.226562 216.804688 118.496094 216.941406 C 119.085938 217.199219 119.972656 217.441406 121.0625 217.582031 C 123.257812 217.859375 126.074219 217.71875 128.988281 217.3125 C 135.132812 216.417969 141.441406 214.554688 147.460938 212.480469 C 166.132812 206.042969 186.136719 195.722656 203.996094 186.886719 C 185.929688 206.632812 159.066406 228.28125 133.117188 236.015625 C 120.332031 239.835938 104.710938 238.96875 97.839844 225.253906 " fill-opacity="1" fill-rule="nonzero"/></g></g></g></svg>